<?xml version="1.0" standalone="no"?>
<!DOCTYPE svg PUBLIC "-//W3C//DTD SVG 20010904//EN"
 "http://www.w3.org/TR/2001/REC-SVG-20010904/DTD/svg10.dtd">
<svg version="1.0" xmlns="http://www.w3.org/2000/svg"
 width="260.000000pt" height="260.000000pt" viewBox="0 0 260.000000 260.000000"
 preserveAspectRatio="xMidYMid meet">
<metadata>
Created by potrace 1.11, written by Peter Selinger 2001-2013
</metadata>
<g transform="translate(0.000000,260.000000) scale(0.100000,-0.100000)"
fill="#000000" stroke="none">
<path d="M1919 2569 c-8 -12 -27 -18 -58 -18 -100 -2 -111 -4 -99 -18 15 -18
3 -16 -16 3 -9 8 -16 11 -16 5 0 -6 -8 -8 -17 -5 -15 5 -15 4 -3 -4 8 -6 18
-8 22 -6 4 3 8 0 8 -5 0 -6 -10 -11 -22 -11 -73 1 -103 -6 -100 -23 2 -10 -4
-17 -13 -17 -10 0 -13 5 -9 12 4 7 3 8 -4 4 -7 -4 -12 -15 -12 -24 0 -10 -3
-13 -8 -7 -4 6 -13 11 -21 13 -12 3 -12 0 -2 -12 9 -11 9 -16 -1 -22 -20 -13
-39 -14 -32 -2 4 5 -4 4 -17 -2 -30 -16 -39 -25 -17 -17 10 3 19 0 22 -9 3 -8
2 -12 -3 -9 -5 3 -12 1 -15 -3 -3 -5 -17 -8 -30 -7 -24 3 -42 -18 -31 -35 3
-5 -3 -7 -13 -5 -10 2 -25 -1 -33 -7 -11 -8 -10 -9 4 -4 16 5 16 4 1 -19 -15
-23 -32 -37 -19 -15 3 6 1 10 -6 10 -6 0 -9 -8 -6 -20 3 -11 1 -18 -4 -14 -8
5 -13 -10 -10 -29 1 -5 -3 -6 -9 -2 -6 3 -8 11 -5 16 4 5 1 9 -4 9 -6 0 -11
-12 -11 -26 0 -16 -4 -23 -11 -18 -8 4 -9 -1 -5 -17 3 -13 3 -18 0 -11 -9 19
-24 14 -17 -5 6 -16 5 -17 -12 -3 -10 8 -16 10 -13 5 4 -6 -2 -17 -14 -24 -11
-7 -17 -8 -14 -3 7 11 -16 22 -45 22 -10 0 -19 5 -19 11 0 5 6 7 13 3 8 -5 7
-2 -2 9 -10 13 -17 15 -27 6 -11 -9 -14 -9 -14 0 0 7 -6 11 -12 10 -33 -4 -39
1 -28 22 11 19 10 20 -9 9 -14 -7 -21 -7 -21 0 0 5 -12 10 -26 10 -21 0 -24 3
-19 21 6 18 4 19 -13 10 -16 -8 -21 -7 -26 5 -3 9 -11 12 -18 8 -10 -6 -10 -4
0 8 11 14 10 16 -7 11 -15 -4 -21 -1 -21 10 0 9 -4 19 -10 22 -6 3 -7 -1 -4
-10 4 -10 2 -15 -7 -13 -21 4 -30 21 -16 30 7 5 2 7 -13 7 -14 -1 -38 3 -53
10 -16 6 -34 8 -40 4 -7 -3 -9 -3 -5 2 13 14 -18 33 -50 31 -22 -1 -29 1 -22
9 7 8 5 12 -5 12 -8 0 -15 -6 -15 -14 0 -7 -4 -13 -10 -13 -5 0 -7 7 -3 15 6
16 -17 17 -28 2 -3 -5 -9 -2 -12 6 -4 11 0 15 14 12 10 -2 19 0 19 4 0 5 -27
7 -60 7 -33 -1 -60 2 -60 7 0 4 -4 6 -10 2 -5 -3 -6 -13 -3 -23 4 -13 2 -13
-10 3 -14 17 -18 18 -27 5 -6 -10 -10 -11 -10 -3 0 7 -7 10 -15 7 -8 -4 -12
-10 -9 -15 3 -5 -2 -6 -11 -3 -13 5 -13 9 -3 23 9 11 7 11 -9 -2 -12 -11 -26
-16 -32 -13 -5 4 -13 1 -17 -5 -4 -7 -3 -9 4 -5 6 3 13 3 16 -2 3 -4 -13 -13
-34 -19 -22 -5 -38 -7 -35 -4 2 4 -5 7 -15 8 -11 1 -22 -2 -25 -8 -3 -5 0 -6
8 -3 8 3 17 -1 20 -8 3 -10 -5 -15 -27 -16 -17 -2 -33 -7 -34 -12 -2 -6 -8 -8
-13 -4 -5 3 -9 -2 -9 -10 0 -9 -7 -16 -15 -16 -9 0 -20 -11 -25 -24 -5 -13
-14 -27 -21 -32 -8 -4 -10 -3 -5 4 4 7 2 12 -3 12 -6 0 -12 -4 -12 -10 -1 -5
-2 -16 -3 -22 -1 -7 -11 -12 -23 -12 -14 1 -20 -3 -16 -12 3 -8 10 -11 17 -7
6 3 -1 -7 -15 -23 -15 -16 -24 -35 -22 -42 3 -7 -1 -10 -10 -6 -10 3 -20 -3
-27 -16 -7 -13 -8 -20 -3 -17 5 4 10 0 10 -8 0 -8 -5 -13 -11 -12 -6 1 -11 -8
-10 -20 0 -12 -3 -20 -7 -18 -4 3 -9 -4 -12 -15 -3 -11 0 -20 6 -20 7 -1 0
-11 -14 -23 l-27 -22 2 -210 c1 -168 4 -209 14 -207 8 1 11 -2 7 -8 -3 -6 -10
-8 -15 -5 -5 3 -8 -14 -7 -39 1 -24 4 -42 7 -39 3 2 5 9 5 14 0 5 3 9 8 9 8 0
8 0 0 -30 -3 -11 -10 -17 -17 -13 -6 4 -5 -1 3 -10 14 -17 26 -24 17 -9 -2 4
-1 14 4 21 5 9 7 2 6 -18 0 -17 -5 -31 -11 -31 -6 0 -6 -3 1 -8 15 -10 25 -42
14 -42 -6 0 -6 -9 -1 -22 4 -13 7 -31 5 -41 -1 -9 6 -22 17 -27 10 -6 18 -14
17 -18 -5 -19 14 -92 22 -87 6 4 7 11 4 17 -4 6 -2 8 3 5 6 -4 10 -21 9 -38
-1 -18 4 -33 13 -39 10 -5 12 -12 6 -22 -6 -8 -3 -6 6 4 15 15 18 16 23 2 3
-8 2 -12 -4 -9 -6 3 -10 1 -10 -4 0 -6 5 -11 11 -11 6 0 9 -9 6 -20 -3 -11 0
-18 7 -17 6 1 10 -4 8 -11 -1 -8 2 -11 7 -7 6 3 7 13 4 23 -8 22 1 13 17 -17
8 -15 8 -21 1 -17 -6 4 -11 5 -11 1 0 -3 12 -10 26 -15 17 -7 24 -15 20 -25
-5 -13 11 -20 37 -16 4 0 7 -8 7 -20 0 -11 5 -17 10 -14 6 3 13 -1 16 -10 6
-13 8 -14 15 -3 7 10 9 10 9 1 0 -7 5 -13 11 -13 5 0 7 6 3 13 -5 9 -3 9 7 -1
12 -11 12 -14 -1 -22 -11 -7 -8 -10 15 -11 17 -1 33 -1 38 0 4 0 7 -5 7 -11 0
-9 4 -8 10 2 9 13 10 13 11 0 1 -8 1 -17 1 -20 0 -3 14 -7 31 -9 56 -6 62 -7
74 -14 6 -4 19 -4 30 -1 10 3 7 -1 -7 -9 -19 -12 -27 -12 -33 -4 -6 8 -7 7 -4
-3 2 -10 16 -15 45 -14 23 0 42 -3 42 -8 0 -5 9 -4 19 2 14 7 22 7 27 -1 4 -7
9 -7 13 -2 3 6 15 1 26 -10 20 -20 20 -20 -2 -8 -19 9 -22 9 -17 -3 5 -14 33
-14 54 -1 6 4 9 1 8 -7 -2 -9 9 -13 39 -12 23 0 40 -3 37 -7 -2 -5 -11 -6 -18
-3 -8 3 -17 1 -20 -4 -3 -5 0 -10 7 -9 30 1 48 -4 43 -11 -3 -5 1 -9 9 -9 8 0
11 5 8 11 -5 7 -2 7 8 0 8 -6 22 -10 31 -9 14 3 16 -1 8 -14 -6 -13 -5 -18 5
-18 8 0 12 4 9 8 -2 4 0 10 6 14 5 3 10 -1 10 -10 0 -9 4 -14 9 -10 5 3 13 0
16 -6 4 -5 13 -8 19 -6 7 3 19 1 27 -5 11 -8 11 -9 -3 -4 -10 3 -19 2 -22 -2
-3 -4 5 -9 17 -9 12 -1 23 -7 25 -13 3 -8 8 -8 17 0 10 9 16 6 25 -9 8 -15 8
-21 0 -21 -6 0 -8 -5 -5 -10 5 -8 11 -8 19 -1 14 12 16 6 18 -76 1 -28 5 -50
8 -48 3 2 6 -5 6 -15 0 -10 -4 -16 -8 -14 -4 3 -8 0 -8 -5 0 -6 6 -11 13 -11
8 0 7 -4 -3 -11 -12 -8 -10 -10 10 -5 24 5 24 4 6 -9 -11 -8 -16 -15 -12 -15
5 0 2 -7 -5 -16 -12 -15 -11 -16 9 -10 14 5 22 3 22 -4 0 -6 -4 -8 -10 -5 -5
3 -10 1 -10 -5 0 -6 -5 -8 -12 -4 -7 4 -8 3 -4 -4 4 -6 13 -9 21 -5 8 3 15 0
15 -6 0 -6 -7 -11 -15 -11 -23 0 -18 -19 8 -30 16 -6 17 -9 5 -9 -23 -1 -31
-18 -18 -38 10 -16 10 -16 5 3 -3 13 -1 21 7 21 9 0 13 -20 12 -69 0 -37 4
-68 9 -68 4 0 5 -5 2 -10 -3 -6 -1 -10 5 -10 13 0 9 31 -5 43 -6 5 -4 7 4 5
13 -4 18 -16 25 -58 4 -29 16 -37 42 -32 21 4 25 2 19 -9 -7 -12 -6 -12 7 -1
13 10 22 11 37 3 26 -14 34 -14 25 1 -4 7 -3 8 4 4 6 -4 9 -14 6 -24 -2 -9 1
-7 7 6 15 28 24 28 45 0 9 -14 14 -16 11 -6 -8 24 3 30 22 10 9 -10 12 -13 8
-6 -9 14 8 28 23 19 5 -3 10 -2 10 4 0 6 7 8 17 4 13 -5 15 -2 11 14 -6 22 5
24 32 9 8 -5 12 -6 8 -1 -4 4 -2 15 5 23 9 13 9 14 0 8 -7 -4 -13 -5 -13 -1 0
3 12 10 26 15 18 7 24 15 20 26 -4 11 -2 15 8 11 10 -4 13 -1 9 8 -3 8 -10 12
-16 8 -6 -3 -7 -1 -3 6 6 9 11 9 21 1 8 -7 15 -7 19 -1 3 5 0 11 -6 14 -9 3
-7 10 7 22 11 9 15 14 9 11 -7 -3 -11 5 -10 23 1 18 5 27 13 24 7 -3 10 -10 6
-17 -3 -6 -2 -8 2 -3 10 8 15 33 18 89 1 20 6 40 11 45 5 4 6 3 2 -5 -9 -14
10 -17 19 -2 4 6 11 7 17 4 7 -4 8 -2 4 5 -4 6 -12 8 -18 5 -5 -4 -2 5 7 20
16 24 34 39 20 16 -3 -5 0 -7 9 -4 8 3 13 14 11 25 -2 10 3 23 12 27 8 5 14
13 14 18 0 5 14 8 31 7 22 -1 28 1 18 7 -8 5 -19 6 -25 3 -5 -2 1 5 15 16 14
11 31 19 39 18 8 -1 16 5 18 13 4 13 3 13 -6 0 -6 -8 -11 -10 -11 -4 0 6 10
19 22 30 12 10 18 13 14 7 -4 -7 -2 -13 4 -13 6 0 13 14 17 31 3 19 14 34 25
36 16 5 23 22 19 46 -1 4 9 2 21 -4 22 -12 22 -11 8 7 -8 10 -10 15 -5 11 5
-4 15 3 22 15 l14 23 -6 -25 -6 -25 14 23 c7 12 17 19 22 15 5 -4 3 0 -4 10
-13 17 -6 23 22 18 4 0 6 2 6 6 -3 20 2 34 10 29 5 -4 7 4 3 16 -3 14 -2 19 6
14 7 -4 12 -3 12 3 0 5 -6 12 -12 15 -7 4 -3 4 9 2 13 -2 26 1 30 6 3 7 1 8
-5 4 -7 -4 -12 -3 -12 3 0 5 5 13 10 16 6 4 8 10 5 15 -3 5 -1 12 5 15 8 5 7
12 -2 23 -12 15 -11 16 5 2 17 -13 21 -12 39 10 11 14 17 20 14 13 -4 -6 -2
-14 4 -18 5 -3 10 1 10 9 0 9 5 16 11 16 5 0 7 6 3 13 -6 10 -4 10 7 0 7 -7
18 -13 23 -13 6 0 4 5 -4 10 -13 9 -13 11 0 19 8 6 17 6 20 2 3 -5 11 -3 18 5
10 12 10 14 -2 14 -8 0 -17 4 -20 9 -4 5 3 7 14 4 19 -5 26 5 21 31 -1 5 6 3
15 -5 10 -8 15 -9 11 -3 -6 11 26 68 34 60 3 -3 11 4 18 16 10 16 10 19 -1 13
-7 -3 -4 0 6 9 10 8 22 13 26 11 4 -2 5 7 2 22 -4 19 -2 24 8 18 10 -6 11 -2
6 20 -6 25 -6 26 9 11 21 -21 21 -21 20 19 -1 19 3 31 8 28 5 -3 6 4 2 18 -6
22 -6 23 7 6 13 -17 14 -16 16 10 1 15 7 30 12 31 6 2 10 8 10 13 0 6 -5 7
-11 4 -6 -4 -5 2 3 14 7 12 17 21 22 21 4 0 3 -6 -3 -14 -8 -10 -9 -16 -1 -21
11 -7 12 -5 14 24 0 11 4 23 8 27 4 4 2 14 -4 21 -9 12 -9 14 3 11 7 -1 14 -1
15 2 0 3 6 14 12 26 8 16 8 24 -1 33 -9 10 -8 11 8 5 18 -7 18 -6 6 9 -13 16
-8 22 13 18 5 -1 3 5 -4 14 -11 14 -10 19 6 33 10 9 13 10 6 2 -6 -7 -12 -19
-12 -25 0 -5 7 -2 15 9 10 13 11 24 5 37 -7 12 -6 20 2 25 7 5 8 3 3 -7 -5 -8
-4 -10 0 -6 14 12 15 38 2 30 -8 -5 -8 -2 0 9 7 8 10 17 7 21 -3 3 3 8 13 11
20 6 31 56 12 56 -5 0 -8 -4 -5 -9 7 -12 -3 -41 -14 -41 -13 0 -2 44 14 55 19
15 18 271 -2 267 -8 -1 -11 2 -7 8 3 6 11 8 16 4 12 -7 5 54 -7 64 -4 4 -4 -5
-2 -20 3 -16 1 -28 -3 -28 -5 0 -9 13 -9 28 0 15 -6 34 -12 42 -10 11 -9 11 6
0 18 -14 19 -14 7 8 -7 13 -10 30 -7 37 3 8 0 17 -6 21 -7 5 -8 2 -3 -6 5 -9
4 -11 -4 -6 -6 4 -8 13 -4 19 8 13 13 37 8 37 -2 0 -10 -7 -19 -15 -13 -14
-15 -13 -13 4 0 11 4 18 8 15 4 -2 11 0 14 6 4 6 3 10 -2 9 -23 -4 -30 4 -28
31 1 17 -3 34 -8 37 -6 3 -7 1 -3 -5 3 -6 2 -13 -4 -17 -5 -3 -10 1 -10 9 0 8
-8 20 -17 26 -16 10 -16 11 -1 6 12 -3 15 -1 11 10 -3 8 -11 13 -18 10 -9 -3
-12 4 -10 22 3 25 2 25 -11 7 -14 -19 -15 -19 -12 0 2 11 8 27 13 35 7 12 6
13 -6 3 -9 -8 -20 -9 -29 -3 -15 9 -16 13 -19 46 -1 13 -4 14 -14 5 -16 -13
-28 -5 -20 15 3 8 0 14 -5 14 -6 0 -9 9 -7 21 4 17 2 19 -10 9 -18 -15 -20
-24 -3 -14 7 4 8 3 4 -5 -10 -15 -27 -4 -20 13 3 8 -4 16 -16 19 -14 4 -20 10
-15 19 3 7 -1 4 -10 -7 -17 -20 -17 -20 -10 3 7 24 -4 29 -23 10 -9 -9 -12 -9
-12 0 0 12 -34 11 -46 -1 -4 -3 3 -4 15 -2 12 2 19 0 16 -5 -3 -5 4 -7 15 -5
11 2 20 0 20 -6 0 -10 -28 -8 -47 4 -8 5 -13 3 -13 -5 0 -10 -2 -10 -9 0 -10
17 -21 17 -31 2 -5 -8 -9 -7 -13 3 -4 11 0 15 14 12 10 -2 19 0 19 6 0 10 -28
8 -47 -4 -8 -5 -13 -4 -13 2 0 11 -35 10 -46 -2 -4 -3 3 -5 14 -2 12 2 24 -1
27 -6 4 -5 11 -7 16 -4 5 4 9 1 9 -4 0 -12 -27 -10 -47 2 -6 4 -14 4 -17 -1
-3 -5 -22 -8 -43 -7 -28 1 -37 5 -35 16 3 22 -53 20 -69 -2z m55 -4 c-3 -6
-16 -11 -29 -11 -16 0 -21 4 -15 11 5 6 18 11 28 11 11 0 18 -5 16 -11z m-329
-83 c-3 -3 -11 0 -18 7 -9 10 -8 11 6 5 10 -3 15 -9 12 -12z m-1048 -44 c-3
-8 -6 -5 -6 6 -1 11 2 17 5 13 3 -3 4 -12 1 -19z m-142 -17 c-6 -5 -25 10 -25
20 0 5 6 4 14 -3 8 -7 12 -15 11 -17z m1490 -241 c-9 -14 9 -12 23 2 10 10 15
10 22 -2 9 -13 10 -13 10 0 0 13 1 13 10 0 7 -10 12 -11 18 -4 8 12 58 11 70
-1 4 -5 -1 -5 -10 -2 -12 4 -18 1 -18 -8 0 -9 8 -12 21 -10 18 4 19 2 7 -12
-8 -11 -9 -14 -1 -10 7 5 17 -1 23 -14 10 -17 9 -20 -2 -13 -11 6 -11 5 0 -8
10 -13 10 -17 0 -20 -8 -3 -6 -7 6 -11 10 -4 15 -3 11 3 -3 6 -1 10 4 10 6 0
11 -10 11 -23 0 -13 6 -29 13 -36 10 -11 9 -13 -3 -7 -9 4 -8 1 3 -7 17 -14
17 -15 0 -21 -14 -6 -15 -9 -4 -15 9 -6 10 -11 2 -15 -6 -4 -8 -13 -4 -19 11
-17 10 -31 -2 -39 -6 -5 -5 -8 3 -8 7 0 10 -5 6 -12 -4 -6 -3 -8 3 -5 6 4 9
20 8 36 -1 19 3 32 12 35 9 4 11 2 7 -6 -12 -18 -11 -62 0 -71 7 -5 6 -7 -4
-6 -30 3 -36 -2 -34 -28 0 -16 -4 -31 -10 -35 -8 -5 -7 -8 2 -8 6 0 12 -5 12
-11 0 -5 -5 -7 -12 -3 -7 5 -9 0 -6 -14 4 -13 0 -26 -10 -34 -13 -11 -14 -11
-7 1 5 10 4 12 -4 7 -7 -5 -9 -16 -5 -28 4 -14 2 -18 -5 -14 -15 10 -14 -7 2
-23 10 -11 8 -11 -10 -2 -13 6 -24 9 -24 6 -1 -5 -5 -31 -8 -56 0 -6 -7 -9
-14 -6 -10 4 -13 -2 -9 -20 3 -18 1 -24 -7 -19 -11 7 -15 -5 -11 -33 1 -9 -4
-12 -14 -8 -20 8 -33 -13 -15 -24 11 -7 11 -9 -3 -9 -12 0 -15 -6 -12 -23 2
-16 -1 -24 -11 -24 -8 0 -11 5 -8 10 3 6 1 7 -5 3 -7 -4 -12 -18 -12 -32 0
-17 -5 -24 -20 -24 -11 0 -20 -5 -20 -11 0 -5 4 -8 9 -4 5 3 13 1 16 -5 4 -6
3 -10 -2 -9 -22 4 -30 -3 -28 -25 2 -17 -1 -23 -10 -20 -17 7 -38 -29 -25 -42
6 -6 0 -10 -18 -9 -19 0 -26 -5 -24 -16 1 -9 -5 -23 -15 -30 -11 -9 -14 -10
-9 -1 4 6 2 12 -3 12 -6 0 -11 -7 -11 -16 0 -9 -5 -12 -12 -8 -10 6 -10 4 0
-8 11 -14 10 -16 -5 -13 -28 4 -34 -4 -22 -28 7 -12 8 -19 4 -15 -5 4 -15 2
-23 -5 -9 -6 -13 -7 -9 -1 3 6 0 11 -7 11 -8 0 -11 -9 -8 -23 3 -19 1 -23 -17
-19 -12 2 -19 0 -16 -6 4 -5 1 -9 -6 -9 -9 0 -9 -3 0 -14 10 -12 9 -14 -6 -10
-10 3 -27 -2 -38 -11 -11 -9 -14 -14 -7 -10 6 3 12 2 12 -3 0 -16 -13 -22 -26
-11 -13 10 -32 -6 -20 -18 12 -12 -15 -31 -36 -25 -16 4 -19 2 -13 -8 6 -10 4
-11 -6 -4 -23 14 -39 13 -39 -2 0 -9 5 -12 13 -8 6 4 8 3 4 -1 -11 -13 -38
-15 -31 -3 4 6 1 8 -7 6 -8 -3 -13 -11 -11 -18 2 -11 0 -11 -11 -1 -12 9 -16
9 -21 -1 -3 -7 -3 -2 0 11 4 15 2 21 -4 17 -6 -3 -13 0 -16 6 -3 7 -3 0 -1
-16 2 -16 1 -25 -3 -21 -7 6 -8 10 -11 36 0 6 -8 9 -16 5 -13 -5 -14 -2 -4 15
10 19 9 20 -10 9 -12 -6 -21 -9 -22 -8 -1 2 -2 15 -3 30 0 15 -7 33 -14 40
-11 11 -12 9 -7 -7 6 -18 5 -18 -5 -2 -6 10 -16 14 -23 10 -9 -5 -8 -2 0 9 16
19 5 32 -14 16 -11 -9 -13 -8 -11 1 4 19 -71 59 -105 56 -21 -2 -26 0 -18 8
21 21 9 27 -71 31 -14 0 -24 4 -21 8 2 5 -1 8 -7 8 -6 0 -8 5 -5 10 3 5 1 10
-4 10 -6 0 -11 -5 -11 -11 0 -6 -7 -3 -16 6 -14 13 -19 14 -25 3 -7 -10 -9
-10 -9 1 0 8 -3 12 -6 8 -7 -7 -34 15 -29 24 2 3 -10 5 -28 4 -38 -1 -70 12
-62 25 3 6 -1 7 -9 4 -10 -4 -16 -1 -16 7 0 7 -6 5 -14 -7 -8 -10 -18 -16 -22
-11 -4 4 -2 7 5 7 7 0 9 5 6 10 -3 6 -19 10 -34 10 -15 0 -36 7 -47 16 -10 8
-14 13 -7 10 6 -4 14 -3 17 2 2 4 -12 9 -32 10 -20 2 -39 7 -40 12 -2 6 -7 8
-12 5 -4 -3 -14 3 -21 13 -13 15 -12 16 3 4 12 -10 18 -10 24 -1 4 7 3 9 -4 5
-6 -3 -13 -2 -16 2 -3 5 -18 7 -32 4 -24 -4 -26 -2 -22 16 3 12 3 21 -1 20
-20 -2 -31 3 -25 14 5 7 3 8 -5 3 -9 -5 -10 -10 -2 -18 6 -6 11 -15 11 -19 0
-4 -9 1 -20 12 -12 12 -25 18 -29 15 -5 -3 -8 3 -7 12 2 10 -4 24 -13 31 -9 8
-11 11 -4 8 6 -3 10 0 9 6 -3 21 -16 38 -29 38 -7 0 -6 -4 3 -10 13 -8 13 -11
1 -22 -9 -8 -11 -9 -7 -1 3 6 3 14 -2 17 -4 2 -7 23 -6 45 0 23 -3 41 -8 41
-5 0 -4 9 2 20 8 15 8 20 -2 20 -8 0 -9 3 -3 8 14 10 17 32 4 32 -5 0 -8 4 -4
9 3 5 0 13 -6 17 -8 4 -9 3 -5 -4 4 -7 3 -12 -3 -12 -5 0 -9 9 -8 20 1 15 7
19 22 15 11 -3 14 -2 7 1 -6 3 -9 11 -6 16 4 7 2 8 -4 4 -12 -7 -14 -4 -15 37
-1 12 -6 26 -11 30 -7 5 -5 7 4 4 8 -2 15 -15 15 -29 -1 -13 5 -25 11 -25 9 0
10 5 3 19 -7 13 -6 18 3 19 10 0 10 2 1 6 -9 3 -10 10 -3 23 7 13 6 20 -3 23
-9 4 -9 7 1 15 7 5 10 15 7 24 -3 8 1 21 10 28 12 10 15 10 15 -1 1 -8 7 -3
14 10 9 16 15 19 18 11 2 -7 14 -15 26 -16 16 -3 20 0 16 14 -5 16 -5 16 6 0
6 -10 18 -18 27 -18 13 0 13 3 3 15 -7 9 -8 15 -2 15 5 0 12 -6 15 -14 3 -7
18 -12 34 -12 15 1 38 -2 51 -6 15 -5 21 -4 17 2 -7 12 8 14 19 3 4 -5 13 -8
19 -8 7 -1 11 -7 9 -14 -1 -7 2 -10 8 -6 6 3 8 11 5 16 -4 5 -1 9 6 9 6 0 9
-8 7 -18 -4 -14 1 -18 21 -17 14 0 32 -6 39 -15 8 -8 11 -9 7 -2 -3 6 -4 12 0
12 3 0 10 -12 15 -26 6 -14 14 -23 19 -20 15 9 43 -5 37 -19 -2 -7 4 -15 15
-18 18 -5 18 -3 7 11 -11 15 -10 14 8 -1 11 -9 23 -15 26 -12 3 3 8 -1 11 -9
4 -11 1 -13 -11 -9 -13 4 -12 2 3 -10 11 -9 28 -17 39 -17 13 0 17 -5 13 -19
-3 -13 0 -18 12 -16 9 1 25 -5 36 -14 18 -15 19 -15 6 2 -12 15 -12 17 3 11
14 -5 20 -17 18 -35 -1 -4 11 -7 26 -8 61 -1 63 -2 57 -20 -4 -15 -1 -18 22
-15 15 1 34 -3 42 -9 12 -10 13 -9 7 2 -6 9 -5 12 5 9 8 -3 13 -11 11 -18 -2
-10 1 -10 10 -3 23 17 47 23 54 11 5 -7 2 -8 -6 -3 -9 5 -11 4 -6 -3 11 -18
26 -14 27 6 0 9 3 12 5 5 3 -7 12 -9 20 -6 9 3 13 0 11 -8 -2 -8 -2 -11 0 -6
3 4 9 5 14 2 5 -4 6 0 3 8 -4 11 2 14 26 11 24 -3 37 2 51 19 10 12 18 17 19
10 0 -6 -6 -13 -12 -16 -7 -2 -10 -7 -7 -11 4 -4 13 0 22 8 8 8 18 12 23 8 5
-4 2 1 -5 11 -12 15 -11 17 7 17 23 0 41 20 20 21 -7 0 3 7 22 14 19 7 29 14
21 14 -11 1 -11 4 -1 16 6 8 9 18 6 23 -3 5 2 18 10 28 9 10 12 12 8 4 -7 -13
-5 -13 9 -1 19 15 24 36 6 25 -7 -4 -6 3 2 17 7 13 12 27 11 32 -1 4 1 6 5 6
24 -4 31 3 27 25 -3 21 -1 24 16 21 11 -2 18 0 15 5 -3 4 1 11 7 14 7 3 2 4
-12 1 -25 -5 -25 -5 -2 6 12 7 22 21 22 32 0 17 2 18 17 6 11 -10 14 -10 9 -1
-4 7 -2 12 5 12 7 0 9 3 6 6 -9 10 13 45 24 39 5 -4 6 -12 3 -18 -11 -18 1 -6
35 37 17 21 28 42 26 47 -3 4 -1 10 5 14 5 3 10 1 10 -6 0 -8 4 -8 15 1 8 7
15 9 15 5 0 -4 6 -2 13 4 8 6 17 8 20 4 4 -3 7 1 7 10 0 13 9 21 28 26 2 1 0
-3 -3 -9z m-685 -14 c0 -2 -8 -10 -17 -17 -16 -13 -17 -12 -4 4 13 16 21 21
21 13z m545 -76 c-10 -11 -20 -18 -23 -16 -5 6 21 35 32 36 5 0 1 -9 -9 -20z
m-1768 -97 c0 -16 -2 -22 -4 -15 -3 6 -9 10 -14 6 -13 -7 -7 19 6 28 6 4 11 8
11 8 1 0 1 -12 1 -27z m2153 -22 c0 -5 -8 -15 -17 -22 -16 -12 -17 -12 -6 2 7
9 10 19 6 22 -3 4 -1 7 5 7 7 0 12 -4 12 -9z m-2166 -17 c3 -8 2 -12 -4 -9 -6
3 -10 10 -10 16 0 14 7 11 14 -7z m2473 -479 c0 -8 -4 -12 -9 -9 -5 3 -6 10
-3 15 9 13 12 11 12 -6z m-2424 -158 c3 -8 0 -14 -7 -14 -7 0 -13 6 -13 14 0
7 4 13 8 13 4 0 9 -6 12 -13z m767 -23 c0 -2 -7 -4 -15 -4 -8 0 -15 4 -15 10
0 5 7 7 15 4 8 -4 15 -8 15 -10z m94 -43 c-4 -3 -9 -1 -11 6 -2 7 -12 9 -21 6
-14 -4 -15 -3 -2 5 15 11 47 -5 34 -17z m1076 -445 c0 -3 -4 -8 -10 -11 -5 -3
-10 -1 -10 4 0 6 5 11 10 11 6 0 10 -2 10 -4z m-153 -172 c-3 -3 -12 -4 -19
-1 -8 3 -5 6 6 6 11 1 17 -2 13 -5z m-247 -294 c0 -5 -5 -10 -11 -10 -5 0 -7
5 -4 10 3 6 8 10 11 10 2 0 4 -4 4 -10z m-400 -256 c0 -8 -19 -13 -24 -6 -3 5
1 9 9 9 8 0 15 -2 15 -3z"/>
<path d="M1640 1875 c-11 -13 -10 -14 4 -9 9 3 16 10 16 15 0 13 -6 11 -20 -6z"/>
<path d="M1146 1668 c3 -5 10 -6 15 -3 13 9 11 12 -6 12 -8 0 -12 -4 -9 -9z"/>
<path d="M511 1474 c0 -11 3 -14 6 -6 3 7 2 16 -1 19 -3 4 -6 -2 -5 -13z"/>
<path d="M1057 1239 c7 -7 15 -10 18 -7 3 3 -2 9 -12 12 -14 6 -15 5 -6 -5z"/>
<path d="M1161 1197 c-8 -10 -7 -14 2 -14 8 0 14 6 14 14 0 7 -1 13 -2 13 -2
0 -8 -6 -14 -13z"/>
<path d="M1556 1031 c-4 -5 -2 -12 3 -15 5 -4 12 -2 15 3 4 5 2 12 -3 15 -5 4
-12 2 -15 -3z"/>
<path d="M2000 2575 c-6 -7 2 -11 24 -11 22 0 32 4 29 12 -6 15 -41 14 -53 -1z"/>
<path d="M1530 2439 c0 -5 5 -7 10 -4 6 3 10 8 10 11 0 2 -4 4 -10 4 -5 0 -10
-5 -10 -11z"/>
<path d="M790 2421 c0 -5 7 -12 16 -15 14 -5 15 -4 4 9 -14 17 -20 19 -20 6z"/>
<path d="M106 2225 c-11 -8 -15 -15 -9 -15 6 0 16 7 23 15 16 19 11 19 -14 0z"/>
<path d="M2295 1099 c-4 -6 -5 -12 -2 -15 2 -3 7 2 10 11 7 17 1 20 -8 4z"/>
<path d="M1734 512 c3 -6 -2 -15 -11 -21 -16 -9 -16 -10 -2 -11 20 0 33 27 17
36 -6 4 -8 3 -4 -4z"/>
<path d="M1251 43 c0 -12 2 -14 6 -4 5 11 7 11 15 0 8 -12 9 -12 6 0 -6 22
-28 25 -27 4z"/>
<path d="M1335 49 c-4 -5 -4 -13 -1 -16 3 -4 6 0 6 8 0 11 2 11 10 -1 6 -9 10
-10 10 -3 0 17 -17 25 -25 12z"/>
</g>
</svg>
